<svg width="20" height="20" viewBox="0 0 20 20" fill="none" xmlns="http://www.w3.org/2000/svg">
<path d="M6.50078 9.74454C6.50078 7.95069 7.95546 6.4961 9.75039 6.4961C11.5453 6.4961 13.0008 7.95069 13.0008 9.74454C13.0008 11.5384 11.5453 12.993 9.75039 12.993C7.95546 12.993 6.50078 11.5384 6.50078 9.74454ZM4.74368 9.74454C4.74368 12.5081 6.98518 14.7482 9.75039 14.7482C12.5156 14.7482 14.7571 12.5081 14.7571 9.74454C14.7571 6.98099 12.5156 4.74084 9.75039 4.74084C6.98518 4.74084 4.74368 6.98099 4.74368 9.74454ZM13.7853 4.54244C13.7852 4.77371 13.8537 4.99982 13.9822 5.19217C14.1107 5.38452 14.2934 5.53447 14.5071 5.62306C14.7209 5.71165 14.9561 5.7349 15.1831 5.68987C15.4101 5.64485 15.6186 5.53356 15.7823 5.37009C15.946 5.20662 16.0575 4.99831 16.1028 4.77149C16.148 4.54468 16.1249 4.30955 16.0365 4.09585C15.948 3.88214 15.7981 3.69946 15.6057 3.57089C15.4134 3.44232 15.1872 3.37365 14.9558 3.37356H14.9553C14.6451 3.37371 14.3477 3.49689 14.1283 3.71605C13.9089 3.93521 13.7855 4.23243 13.7853 4.54244ZM5.81123 17.6764C4.86061 17.6331 4.34392 17.4748 4.00055 17.3412C3.54532 17.164 3.22051 16.9531 2.87902 16.6123C2.53752 16.2714 2.32613 15.9471 2.14969 15.4922C2.01583 15.1492 1.85749 14.6326 1.81427 13.6826C1.767 12.6554 1.75757 12.3469 1.75757 9.74462C1.75757 7.14236 1.76778 6.83467 1.81427 5.80666C1.85757 4.8566 2.01708 4.34108 2.14969 3.99706C2.32691 3.5421 2.53799 3.21749 2.87902 2.8762C3.22005 2.53491 3.54454 2.32364 4.00055 2.14731C4.34376 2.01353 4.86061 1.85528 5.81123 1.8121C6.839 1.76485 7.14774 1.75542 9.75039 1.75542C12.353 1.75542 12.6621 1.76563 13.6907 1.8121C14.6413 1.85536 15.1572 2.01478 15.5014 2.14731C15.9566 2.32364 16.2814 2.53537 16.6229 2.8762C16.9644 3.21702 17.175 3.5421 17.3523 3.99706C17.4861 4.34006 17.6445 4.8566 17.6877 5.80666C17.7349 6.83467 17.7444 7.14236 17.7444 9.74462C17.7444 12.3469 17.7349 12.6546 17.6877 13.6826C17.6444 14.6326 17.4853 15.149 17.3523 15.4922C17.175 15.9471 16.964 16.2717 16.6229 16.6123C16.2819 16.9528 15.9566 17.164 15.5014 17.3412C15.1582 17.4749 14.6413 17.6332 13.6907 17.6764C12.6629 17.7236 12.3542 17.733 9.75039 17.733C7.14657 17.733 6.83869 17.7236 5.81123 17.6764ZM5.7305 0.059013C4.69251 0.106255 3.98323 0.270742 3.36381 0.511627C2.72231 0.760386 2.17925 1.09412 1.63658 1.6356C1.09392 2.17709 0.760842 2.72068 0.511934 3.36179C0.270905 3.98123 0.106318 4.6897 0.0590484 5.72706C0.0109984 6.76607 0 7.09824 0 9.74454C0 12.3908 0.0109984 12.723 0.0590484 13.762C0.106318 14.7995 0.270905 15.5079 0.511934 16.1273C0.760842 16.768 1.09399 17.3122 1.63658 17.8535C2.17917 18.3947 2.72231 18.728 3.36381 18.9775C3.9844 19.2183 4.69251 19.3828 5.7305 19.4301C6.77067 19.4773 7.1025 19.4891 9.75039 19.4891C12.3983 19.4891 12.7307 19.4781 13.7703 19.4301C14.8083 19.3828 15.5172 19.2183 16.137 18.9775C16.7781 18.728 17.3215 18.395 17.8642 17.8535C18.4069 17.312 18.7392 16.768 18.9888 16.1273C19.2299 15.5079 19.3952 14.7994 19.4417 13.762C19.489 12.7222 19.5 12.3908 19.5 9.74454C19.5 7.09824 19.489 6.76607 19.4417 5.72706C19.3945 4.68962 19.2299 3.98084 18.9888 3.36179C18.7392 2.72107 18.406 2.17794 17.8642 1.6356C17.3224 1.09326 16.7781 0.760386 16.1378 0.511627C15.5172 0.270742 14.8083 0.105475 13.7711 0.059013C12.7314 0.0117714 12.3991 0 9.75117 0C7.10328 0 6.77067 0.0109918 5.7305 0.059013Z" fill="#5C5F66"/>
</svg>
