<svg width="20" height="20" viewBox="0 0 20 20" fill="none" xmlns="http://www.w3.org/2000/svg">
<path fill-rule="evenodd" clip-rule="evenodd" d="M1.44114 0C0.64545 0 -3.05176e-05 0.625828 -3.05176e-05 1.39684V18.1036C-3.05176e-05 18.8747 0.645526 19.5 1.44114 19.5H18.0588C18.8548 19.5 19.5 18.8746 19.5 18.1034V1.39684C19.5 0.625828 18.8548 0 18.0588 0H1.44114ZM5.92567 7.54002V16.319H3.00768V7.54002H5.92567ZM6.11801 4.82502C6.11801 5.66748 5.48464 6.34161 4.46729 6.34161L4.44817 6.34153C3.46883 6.34153 2.83569 5.66741 2.83569 4.82495C2.83569 3.96337 3.48795 3.30806 4.48664 3.30806C5.48464 3.30806 6.09897 3.96337 6.11801 4.82502ZM10.4586 16.319H7.54082C7.54082 16.319 7.57906 8.36389 7.54098 7.54032H10.4588V8.78295C10.8467 8.18489 11.5409 7.3342 13.0886 7.3342C15.0084 7.3342 16.4478 8.58898 16.4478 11.2854V16.319H13.5301V11.623C13.5301 10.4427 13.1075 9.63772 12.052 9.63772C11.2457 9.63772 10.7656 10.1806 10.5547 10.705C10.4776 10.8922 10.4586 11.1549 10.4586 11.4169V16.319Z" fill="#5C5F66"/>
</svg>
