<svg width="20" height="17" viewBox="0 0 20 17" fill="none" xmlns="http://www.w3.org/2000/svg">
<path d="M19.4133 1.93098C18.7825 2.20244 18.1194 2.39148 17.4403 2.4934C17.7578 2.43898 18.225 1.86748 18.4109 1.63616C18.6934 1.28723 18.9087 0.888909 19.0459 0.461416C19.0459 0.429667 19.0777 0.38431 19.0459 0.361631C19.0299 0.352897 19.012 0.348321 18.9938 0.348321C18.9755 0.348321 18.9576 0.352897 18.9416 0.361631C18.2042 0.760963 17.4194 1.06574 16.6057 1.26877C16.5774 1.27743 16.5472 1.27821 16.5184 1.27102C16.4896 1.26383 16.4634 1.24894 16.4424 1.22795C16.3791 1.15253 16.3109 1.08132 16.2383 1.01477C15.9065 0.717433 15.5299 0.474075 15.1225 0.293596C14.5726 0.0679805 13.9786 -0.0297286 13.3854 0.00784764C12.8098 0.0442002 12.2478 0.19859 11.7344 0.461416C11.2288 0.738512 10.7845 1.11495 10.4281 1.56812C10.0532 2.03455 9.78258 2.57585 9.63436 3.15561C9.51215 3.70709 9.49828 4.27706 9.59354 4.83382C9.59354 4.92907 9.59354 4.94268 9.5119 4.92907C6.27795 4.45282 3.62458 3.30529 1.45652 0.842414C1.36127 0.733558 1.31138 0.733558 1.23427 0.842414C0.290847 2.27569 0.748951 4.54354 1.92823 5.66385C2.08698 5.81353 2.25026 5.95867 2.42262 6.09474C1.88193 6.05635 1.35444 5.90983 0.871415 5.66385C0.780701 5.60489 0.730809 5.63664 0.726273 5.74549C0.713415 5.89641 0.713415 6.04814 0.726273 6.19906C0.820913 6.92232 1.10594 7.60747 1.55222 8.18444C1.9985 8.76141 2.59001 9.20951 3.26626 9.4829C3.43111 9.55351 3.60289 9.60672 3.77879 9.64165C3.27824 9.74019 2.76487 9.75552 2.25934 9.68701C2.15048 9.66433 2.10966 9.72329 2.15048 9.82761C2.81722 11.6419 4.26411 12.1952 5.32546 12.5037C5.4706 12.5263 5.61574 12.5263 5.77903 12.5626C5.77903 12.5626 5.77903 12.5626 5.75181 12.5898C5.43885 13.1613 4.1734 13.5469 3.59283 13.7464C2.53314 14.1271 1.40332 14.2726 0.281776 14.1728C0.104884 14.1456 0.0640626 14.1501 0.0187057 14.1728C-0.0266512 14.1955 0.0187057 14.2454 0.0685983 14.2907C0.295383 14.4404 0.522167 14.5719 0.758023 14.6989C1.46017 15.0819 2.20248 15.3861 2.97144 15.6061C6.95377 16.7037 11.435 15.8964 14.424 12.9255C16.7735 10.5941 17.599 7.37834 17.599 4.158C17.599 4.03554 17.7487 3.96297 17.8349 3.89947C18.4293 3.43633 18.9533 2.88937 19.3906 2.27569C19.4664 2.18421 19.5052 2.06774 19.4995 1.94912C19.4995 1.88109 19.4995 1.89469 19.4133 1.93098Z" fill="#5C5F66"/>
</svg>
